<svg height="28" width="35" xmlns="http://www.w3.org/2000/svg"><path d="M16.662 13.13l.003.017c-1.59.42-3.198.772-4.775 1.259A20.98 20.98 0 00.075 9.126a38.405 38.405 0 0122.283-7.217L19.61 4.427S31.254 4.01 34.19 0a5.377 5.377 0 01-.378 1.215A13.12 13.12 0 0129.574 7.2a24.265 24.265 0 01-6.042 3.441 57.874 57.874 0 01-6.566 2.404l-.304.084zm18.263-.396c-4.22.588-12.352 4.762-18.218 8.031a21.105 21.105 0 00-3.684-5.257c11.157-3.613 21.902-2.774 21.902-2.774zM17.441 22.44l11.556-4.96L18.77 28a20.938 20.938 0 00-1.33-5.56z" fill="#ffa100"/></svg>
